<svg width="187" height="58" viewBox="0 0 187 58" fill="none" xmlns="http://www.w3.org/2000/svg">
<g clip-path="url(#clip0_42_21)">
<circle cx="25.9187" cy="50.9999" r="3" fill="#42C0FF"/>
<circle cx="6" cy="39.5026" r="3" fill="#FF6969"/>
<circle cx="15.4187" cy="44.9999" r="3" fill="#49F878"/>
<circle cx="25.9187" cy="38.9999" r="3" fill="#42C0FF"/>
<circle cx="6" cy="27.5026" r="3" fill="#FF6969"/>
<circle cx="15.4187" cy="32.9999" r="3" fill="#49F878"/>
<circle cx="25.9187" cy="27.9999" r="3" fill="#42C0FF"/>
<circle cx="6" cy="16.5026" r="3" fill="#FF6969"/>
<circle cx="15.4187" cy="21.9999" r="3" fill="#49F878"/>
<path fill-rule="evenodd" clip-rule="evenodd" d="M26.9187 3.2679L25.9187 2.69055L24.9187 3.2679L14.9594 9.0179L9.97979 11.8929L7.99854 13.0368C9.19432 13.7278 9.99919 15.0198 10.0001 16.5L11.9798 15.357L16.9594 12.482L23.9187 8.46405V24.5351C24.5071 24.1947 25.1901 24 25.9187 24C26.6473 24 27.3304 24.1947 27.9187 24.5351V8.46405L41.8373 16.5L34.878 20.5179L29.8984 23.3929L27.9194 24.5355C29.1146 25.2272 29.9187 26.5197 29.9187 28C29.9187 29.4802 29.1146 30.7727 27.9194 31.4644L41.8373 39.5L34.878 43.5179L29.8984 46.3929L27.9194 47.5355C29.1146 48.2272 29.9187 49.5197 29.9187 51L31.8984 49.857L36.878 46.982L46.8373 41.232L47.8373 40.6547V39.5V16.5V15.3453L46.8373 14.7679L26.9187 3.2679ZM23.9181 31.4644C22.7228 30.7727 21.9187 29.4802 21.9187 28L18.2141 30.1388C18.9573 30.8651 19.4187 31.8787 19.4187 33C19.4187 33.4037 19.3589 33.7935 19.2476 34.1609L23.9181 31.4644ZM9.97979 34.8929L11.5424 33.9907C11.9094 35.431 13.058 36.5589 14.5099 36.8963L11.9798 38.357L10.0001 39.5C9.99919 38.0198 9.19432 36.7278 7.99854 36.0368L9.97979 34.8929ZM36.878 23.982L43.8373 19.9641V36.0359L29.9187 28L31.8984 26.857L36.878 23.982Z" fill="#1E1E1E"/>
<path d="M60.3529 25V8.2H69.2089C70.3129 8.2 71.2889 8.44 72.1369 8.92C73.0009 9.384 73.6809 10.024 74.1769 10.84C74.6729 11.656 74.9209 12.592 74.9209 13.648C74.9209 14.656 74.6729 15.568 74.1769 16.384C73.6809 17.184 73.0009 17.816 72.1369 18.28C71.2729 18.744 70.2969 18.976 69.2089 18.976H64.4809V25H60.3529ZM64.4809 15.568H68.7289C69.3369 15.568 69.8249 15.392 70.1929 15.04C70.5609 14.688 70.7449 14.232 70.7449 13.672C70.7449 13.096 70.5609 12.632 70.1929 12.28C69.8249 11.912 69.3369 11.728 68.7289 11.728H64.4809V15.568ZM82.0823 25.24C80.7863 25.24 79.6183 24.952 78.5783 24.376C77.5383 23.784 76.7143 22.992 76.1063 22C75.4983 21.008 75.1943 19.896 75.1943 18.664C75.1943 17.432 75.4983 16.32 76.1063 15.328C76.7143 14.32 77.5383 13.528 78.5783 12.952C79.6183 12.36 80.7863 12.064 82.0823 12.064C83.3783 12.064 84.5463 12.36 85.5863 12.952C86.6263 13.528 87.4503 14.32 88.0583 15.328C88.6663 16.32 88.9703 17.432 88.9703 18.664C88.9703 19.896 88.6663 21.008 88.0583 22C87.4503 22.992 86.6263 23.784 85.5863 24.376C84.5463 24.952 83.3783 25.24 82.0823 25.24ZM82.0823 21.88C82.6743 21.88 83.2023 21.736 83.6663 21.448C84.1303 21.16 84.4983 20.776 84.7703 20.296C85.0423 19.8 85.1783 19.256 85.1783 18.664C85.1783 18.056 85.0423 17.512 84.7703 17.032C84.4983 16.536 84.1223 16.144 83.6423 15.856C83.1783 15.568 82.6583 15.424 82.0823 15.424C81.5063 15.424 80.9783 15.568 80.4983 15.856C80.0343 16.144 79.6663 16.536 79.3943 17.032C79.1223 17.512 78.9863 18.056 78.9863 18.664C78.9863 19.256 79.1223 19.8 79.3943 20.296C79.6663 20.776 80.0343 21.16 80.4983 21.448C80.9783 21.736 81.5063 21.88 82.0823 21.88ZM90.7938 25V12.304H94.6818V25H90.7938ZM92.7378 11.128C92.1458 11.128 91.6418 10.92 91.2258 10.504C90.8098 10.088 90.6018 9.584 90.6018 8.992C90.6018 8.4 90.8098 7.896 91.2258 7.48C91.6418 7.064 92.1458 6.856 92.7378 6.856C93.3298 6.856 93.8338 7.064 94.2498 7.48C94.6658 7.896 94.8738 8.4 94.8738 8.992C94.8738 9.584 94.6658 10.088 94.2498 10.504C93.8338 10.92 93.3298 11.128 92.7378 11.128ZM97.075 25V12.304H100.963V13.168C101.923 12.432 103.059 12.064 104.371 12.064C105.363 12.064 106.235 12.28 106.987 12.712C107.755 13.144 108.355 13.744 108.787 14.512C109.219 15.28 109.435 16.168 109.435 17.176V25H105.547V17.704C105.547 17 105.339 16.44 104.923 16.024C104.507 15.608 103.947 15.4 103.243 15.4C102.747 15.4 102.307 15.488 101.923 15.664C101.555 15.84 101.235 16.088 100.963 16.408V25H97.075ZM117.803 25.168C116.283 25.168 115.131 24.832 114.347 24.16C113.579 23.472 113.195 22.464 113.195 21.136V15.544H110.627V12.304H113.195V9.04L117.083 8.2V12.304H120.635V15.544H117.083V20.368C117.083 20.928 117.203 21.328 117.443 21.568C117.699 21.792 118.139 21.904 118.763 21.904C119.083 21.904 119.371 21.888 119.627 21.856C119.899 21.808 120.195 21.736 120.515 21.64V24.784C120.163 24.896 119.715 24.984 119.171 25.048C118.627 25.128 118.171 25.168 117.803 25.168ZM128.18 25.24C126.916 25.24 125.772 24.952 124.748 24.376C123.74 23.8 122.94 23.016 122.348 22.024C121.756 21.016 121.46 19.896 121.46 18.664C121.46 17.416 121.756 16.296 122.348 15.304C122.94 14.312 123.74 13.528 124.748 12.952C125.772 12.36 126.916 12.064 128.18 12.064C129.22 12.064 130.212 12.272 131.156 12.688C132.1 13.088 132.9 13.664 133.556 14.416L131.18 16.888C130.732 16.376 130.276 16.008 129.812 15.784C129.348 15.544 128.836 15.424 128.276 15.424C127.716 15.424 127.212 15.568 126.764 15.856C126.316 16.128 125.964 16.512 125.708 17.008C125.452 17.488 125.324 18.04 125.324 18.664C125.324 19.272 125.452 19.824 125.708 20.32C125.98 20.8 126.348 21.184 126.812 21.472C127.276 21.744 127.796 21.88 128.372 21.88C128.9 21.88 129.388 21.768 129.836 21.544C130.284 21.32 130.716 20.976 131.132 20.512L133.436 22.912C132.796 23.648 132.012 24.224 131.084 24.64C130.156 25.04 129.188 25.24 128.18 25.24ZM134.973 25V8.2L138.861 7.6V25H134.973ZM147.567 25.24C146.271 25.24 145.103 24.952 144.063 24.376C143.023 23.784 142.199 22.992 141.591 22C140.983 21.008 140.679 19.896 140.679 18.664C140.679 17.432 140.983 16.32 141.591 15.328C142.199 14.32 143.023 13.528 144.063 12.952C145.103 12.36 146.271 12.064 147.567 12.064C148.863 12.064 150.031 12.36 151.071 12.952C152.111 13.528 152.935 14.32 153.543 15.328C154.151 16.32 154.455 17.432 154.455 18.664C154.455 19.896 154.151 21.008 153.543 22C152.935 22.992 152.111 23.784 151.071 24.376C150.031 24.952 148.863 25.24 147.567 25.24ZM147.567 21.88C148.159 21.88 148.687 21.736 149.151 21.448C149.615 21.16 149.983 20.776 150.255 20.296C150.527 19.8 150.663 19.256 150.663 18.664C150.663 18.056 150.527 17.512 150.255 17.032C149.983 16.536 149.607 16.144 149.127 15.856C148.663 15.568 148.143 15.424 147.567 15.424C146.991 15.424 146.463 15.568 145.983 15.856C145.519 16.144 145.151 16.536 144.879 17.032C144.607 17.512 144.471 18.056 144.471 18.664C144.471 19.256 144.607 19.8 144.879 20.296C145.151 20.776 145.519 21.16 145.983 21.448C146.463 21.736 146.991 21.88 147.567 21.88ZM161.246 25.24C160.254 25.24 159.374 25.024 158.606 24.592C157.854 24.16 157.262 23.56 156.83 22.792C156.398 22.008 156.182 21.12 156.182 20.128V12.304H160.07V19.6C160.07 20.288 160.278 20.848 160.694 21.28C161.126 21.696 161.686 21.904 162.374 21.904C162.87 21.904 163.31 21.816 163.694 21.64C164.078 21.464 164.398 21.216 164.654 20.896V12.304H168.542V25H164.654V24.136C163.694 24.872 162.558 25.24 161.246 25.24ZM176.854 25.168C175.654 25.168 174.558 24.88 173.566 24.304C172.59 23.712 171.814 22.928 171.238 21.952C170.662 20.96 170.374 19.856 170.374 18.64C170.374 17.424 170.662 16.328 171.238 15.352C171.83 14.36 172.622 13.576 173.614 13C174.622 12.424 175.742 12.136 176.974 12.136C177.566 12.136 178.134 12.208 178.678 12.352C179.222 12.496 179.734 12.704 180.214 12.976V8.2L184.102 7.6V25H180.262V24.064C179.254 24.8 178.118 25.168 176.854 25.168ZM177.526 21.856C178.07 21.856 178.566 21.776 179.014 21.616C179.462 21.44 179.862 21.184 180.214 20.848V16.408C179.878 16.088 179.478 15.848 179.014 15.688C178.55 15.512 178.054 15.424 177.526 15.424C176.902 15.424 176.334 15.568 175.822 15.856C175.326 16.128 174.926 16.512 174.622 17.008C174.334 17.488 174.19 18.032 174.19 18.64C174.19 19.248 174.334 19.8 174.622 20.296C174.926 20.776 175.326 21.16 175.822 21.448C176.334 21.72 176.902 21.856 177.526 21.856ZM60.3529 51V34.2H69.2089C70.3129 34.2 71.2889 34.44 72.1369 34.92C73.0009 35.384 73.6809 36.024 74.1769 36.84C74.6729 37.656 74.9209 38.592 74.9209 39.648C74.9209 40.656 74.6729 41.568 74.1769 42.384C73.6809 43.184 73.0009 43.816 72.1369 44.28C71.2729 44.744 70.2969 44.976 69.2089 44.976H64.4809V51H60.3529ZM64.4809 41.568H68.7289C69.3369 41.568 69.8249 41.392 70.1929 41.04C70.5609 40.688 70.7449 40.232 70.7449 39.672C70.7449 39.096 70.5609 38.632 70.1929 38.28C69.8249 37.912 69.3369 37.728 68.7289 37.728H64.4809V41.568ZM76.8484 51V34.2L80.7364 33.6V51H76.8484ZM87.1857 51.216C86.2897 51.216 85.4897 51.048 84.7857 50.712C84.0977 50.376 83.5537 49.912 83.1537 49.32C82.7697 48.728 82.5777 48.048 82.5777 47.28C82.5777 46.064 83.0337 45.128 83.9457 44.472C84.8737 43.8 86.1617 43.464 87.8097 43.464C88.8017 43.464 89.7617 43.584 90.6897 43.824V43.2C90.6897 42.56 90.4817 42.088 90.0657 41.784C89.6657 41.464 89.0657 41.304 88.2657 41.304C87.7697 41.304 87.2097 41.384 86.5857 41.544C85.9777 41.704 85.2577 41.96 84.4257 42.312L83.0337 39.456C84.0737 38.992 85.0737 38.648 86.0337 38.424C87.0097 38.184 87.9857 38.064 88.9617 38.064C90.7217 38.064 92.0897 38.488 93.0657 39.336C94.0417 40.168 94.5297 41.344 94.5297 42.864V51H90.6897V50.232C90.1777 50.584 89.6337 50.84 89.0577 51C88.4977 51.144 87.8737 51.216 87.1857 51.216ZM86.2737 47.208C86.2737 47.608 86.4497 47.92 86.8017 48.144C87.1537 48.368 87.6417 48.48 88.2657 48.48C88.7297 48.48 89.1617 48.432 89.5617 48.336C89.9777 48.24 90.3537 48.088 90.6897 47.88V46.248C90.3217 46.152 89.9457 46.08 89.5617 46.032C89.1777 45.984 88.7857 45.96 88.3857 45.96C87.7137 45.96 87.1937 46.072 86.8257 46.296C86.4577 46.504 86.2737 46.808 86.2737 47.208ZM102.897 51.168C101.377 51.168 100.225 50.832 99.4411 50.16C98.6731 49.472 98.2891 48.464 98.2891 47.136V41.544H95.7211V38.304H98.2891V35.04L102.177 34.2V38.304H105.729V41.544H102.177V46.368C102.177 46.928 102.297 47.328 102.537 47.568C102.793 47.792 103.233 47.904 103.857 47.904C104.177 47.904 104.465 47.888 104.721 47.856C104.993 47.808 105.289 47.736 105.609 47.64V50.784C105.257 50.896 104.809 50.984 104.265 51.048C103.721 51.128 103.265 51.168 102.897 51.168ZM109.497 51V41.544H106.713V38.304H109.497V37.536C109.497 36.032 109.937 34.888 110.817 34.104C111.713 33.304 112.993 32.904 114.657 32.904C114.993 32.904 115.353 32.928 115.737 32.976C116.137 33.008 116.465 33.064 116.721 33.144V36.36C116.417 36.296 116.145 36.256 115.905 36.24C115.681 36.208 115.441 36.192 115.185 36.192C114.593 36.192 114.145 36.312 113.841 36.552C113.537 36.776 113.385 37.128 113.385 37.608V38.304H116.721V41.544H113.385V51H109.497ZM124.176 51.24C122.88 51.24 121.712 50.952 120.672 50.376C119.632 49.784 118.808 48.992 118.2 48C117.592 47.008 117.288 45.896 117.288 44.664C117.288 43.432 117.592 42.32 118.2 41.328C118.808 40.32 119.632 39.528 120.672 38.952C121.712 38.36 122.88 38.064 124.176 38.064C125.472 38.064 126.64 38.36 127.68 38.952C128.72 39.528 129.544 40.32 130.152 41.328C130.76 42.32 131.064 43.432 131.064 44.664C131.064 45.896 130.76 47.008 130.152 48C129.544 48.992 128.72 49.784 127.68 50.376C126.64 50.952 125.472 51.24 124.176 51.24ZM124.176 47.88C124.768 47.88 125.296 47.736 125.76 47.448C126.224 47.16 126.592 46.776 126.864 46.296C127.136 45.8 127.272 45.256 127.272 44.664C127.272 44.056 127.136 43.512 126.864 43.032C126.592 42.536 126.216 42.144 125.736 41.856C125.272 41.568 124.752 41.424 124.176 41.424C123.6 41.424 123.072 41.568 122.592 41.856C122.128 42.144 121.76 42.536 121.488 43.032C121.216 43.512 121.08 44.056 121.08 44.664C121.08 45.256 121.216 45.8 121.488 46.296C121.76 46.776 122.128 47.16 122.592 47.448C123.072 47.736 123.6 47.88 124.176 47.88ZM132.888 51V38.304H136.776V39.576C137.192 39.064 137.68 38.68 138.24 38.424C138.8 38.152 139.424 38.016 140.112 38.016C140.8 38.032 141.288 38.136 141.576 38.328V41.712C141.32 41.584 141.032 41.488 140.712 41.424C140.392 41.36 140.064 41.328 139.728 41.328C139.12 41.328 138.552 41.472 138.023 41.76C137.512 42.032 137.096 42.424 136.776 42.936V51H132.888ZM143.247 51V38.304H147.135V39.12C148.031 38.416 149.087 38.064 150.303 38.064C151.103 38.064 151.823 38.216 152.463 38.52C153.103 38.824 153.639 39.256 154.071 39.816C154.583 39.256 155.191 38.824 155.895 38.52C156.599 38.216 157.367 38.064 158.199 38.064C159.159 38.064 160.007 38.28 160.743 38.712C161.479 39.144 162.055 39.744 162.471 40.512C162.903 41.28 163.119 42.168 163.119 43.176V51H159.231V43.704C159.231 43 159.039 42.44 158.655 42.024C158.287 41.608 157.791 41.4 157.167 41.4C156.735 41.4 156.343 41.48 155.991 41.64C155.639 41.8 155.335 42.04 155.079 42.36C155.095 42.488 155.103 42.624 155.103 42.768C155.119 42.896 155.127 43.032 155.127 43.176V51H151.239V43.704C151.239 43 151.047 42.44 150.663 42.024C150.295 41.608 149.799 41.4 149.175 41.4C148.743 41.4 148.351 41.48 147.999 41.64C147.663 41.784 147.375 42.008 147.135 42.312V51H143.247Z" fill="#1E1E1E"/>
</g>
<defs>
<clipPath id="clip0_42_21">
<rect width="187" height="58" rx="1" fill="white"/>
</clipPath>
</defs>
</svg>
